<svg xmlns="http://www.w3.org/2000/svg" width="118.336" height="97" viewBox="0 0 118.336 97">
  <g id="Group_195" data-name="Group 195" transform="translate(0 -0.349)">
    <g id="Union_1" data-name="Union 1" transform="translate(0 1.613)" fill="none">
      <path d="M38.948,93.5a2,2,0,0,1-2-2V84.91a38.956,38.956,0,0,1-10.392-4.1l-4.517,4.517a2,2,0,0,1-2.829,0L8.176,74.29a2,2,0,0,1,0-2.828L12.5,67.139A38.994,38.994,0,0,1,8.021,56.552H2a2,2,0,0,1-2-2V38.948a2,2,0,0,1,2-2H8.021A39,39,0,0,1,12.5,26.36L8.176,22.038a2,2,0,0,1,0-2.829L19.21,8.176a2,2,0,0,1,2.829,0l4.516,4.516a38.961,38.961,0,0,1,10.393-4.1V2a2,2,0,0,1,2-2h15.6a2,2,0,0,1,2,2V8.978a38.993,38.993,0,0,1,9.832,4.274l5.076-5.076a2,2,0,0,1,2.829,0L85.324,19.21a2,2,0,0,1,0,2.829l-5.27,5.27a38.983,38.983,0,0,1,3.916,9.639H91.5a2,2,0,0,1,2,2V54.553a2,2,0,0,1-2,2h-7.53a38.977,38.977,0,0,1-3.916,9.638l5.27,5.27a2,2,0,0,1,0,2.829L74.29,85.324a2,2,0,0,1-2.829,0l-5.076-5.076a38.992,38.992,0,0,1-9.832,4.274V91.5a2,2,0,0,1-2,2Z" stroke="none"/>
      <path d="M 54.55239868164062 91.49941253662109 L 54.55239868164062 83.00278472900391 L 56.01515960693359 82.59486389160156 C 59.29127883911133 81.68126678466797 62.42969131469727 80.31698608398438 65.34322357177734 78.5399169921875 L 66.68638610839844 77.72068023681641 L 72.87538909912109 83.90938568115234 L 83.90938568115234 72.8751220703125 L 77.55854797363281 66.52426910400391 L 78.31734466552734 65.19767761230469 C 79.96010589599609 62.32571792602539 81.21009063720703 59.24929428100586 82.03256225585938 56.05386734008789 L 82.41901397705078 54.55239868164062 L 91.49919891357422 54.5526008605957 L 91.49941253662109 38.94770431518555 L 82.41925048828125 38.94770431518555 L 82.03279876708984 37.44623947143555 C 81.21017456054688 34.25019836425781 79.96012115478516 31.17349243164062 78.3173828125 28.30157279968262 L 77.55857086181641 26.97500038146973 L 83.90938568115234 20.62381362915039 L 72.87512969970703 9.589799880981445 L 66.68645477294922 15.77855968475342 L 65.34327697753906 14.95930576324463 C 62.42974472045898 13.18222618103027 59.29130554199219 11.81793308258057 56.01515960693359 10.90430641174316 L 54.55239868164062 10.49638652801514 L 54.55170440673828 1.999999403953552 L 38.94680023193359 1.999799489974976 L 38.94680023193359 10.17213249206543 L 37.40652084350586 10.53591918945312 C 33.95302581787109 11.35159969329834 30.63590621948242 12.66095924377441 27.54730606079102 14.42763900756836 L 26.2207202911377 15.18645286560059 L 20.62381362915039 9.589813232421875 L 9.589813232421875 20.62409210205078 L 15.02431964874268 26.0585994720459 L 14.20506572723389 27.40176010131836 C 12.29741287231445 30.52937316894531 10.86849308013916 33.9088249206543 9.957999229431152 37.44623947143555 L 9.571533203125 38.94770431518555 L 1.999999403953552 38.94750595092773 L 1.999799489974976 54.55239868164062 L 9.571785926818848 54.55239868164062 L 9.958239555358887 56.05387878417969 C 10.86855983734131 59.59062576293945 12.29750633239746 62.96994781494141 14.20539951324463 66.09796142578125 L 15.02463912963867 67.44111633300781 L 9.590946197509766 72.87651824951172 L 20.62407875061035 83.91030883789062 L 26.22125244140625 78.31304931640625 L 27.54785346984863 79.07186889648438 C 30.63603973388672 80.83830261230469 33.95297241210938 82.14756011962891 37.40653228759766 82.96326446533203 L 38.94680023193359 83.32706451416016 L 38.94750595092773 91.49919891357422 L 54.55239868164062 91.49941253662109 M 54.55170440673828 93.49919891357422 L 38.94750595092773 93.49919891357422 C 37.84230422973633 93.49919891357422 36.94680023193359 92.60459899902344 36.94680023193359 91.49941253662109 L 36.94680023193359 84.90970611572266 C 33.25346755981445 84.03737640380859 29.76227951049805 82.64258575439453 26.5548267364502 80.80792236328125 L 22.03830528259277 85.32450866699219 C 21.25710868835449 86.10481262207031 19.99079895019531 86.10481262207031 19.20959854125977 85.32450866699219 L 8.175599098205566 74.28959655761719 C 7.394399642944336 73.50930786132812 7.394399642944336 72.24299621582031 8.175599098205566 71.46179962158203 L 12.49794578552246 67.13939666748047 C 10.51691913604736 63.8914794921875 8.99406623840332 60.33150482177734 8.02137279510498 56.55239868164062 L 1.999799489974976 56.55239868164062 C 0.8955061435699463 56.55239868164062 -5.432128773463774e-07 55.65690612792969 -5.432128773463774e-07 54.5526008605957 L -5.432128773463774e-07 38.94750595092773 C -5.432128773463774e-07 37.84320068359375 0.8955061435699463 36.94770431518555 1.999799489974976 36.94770431518555 L 8.021132469177246 36.94770431518555 C 8.993839263916016 33.16859817504883 10.51658630371094 29.60824012756348 12.49761295318604 26.36031913757324 L 8.175599098205566 22.03830528259277 C 7.394399642944336 21.25710678100586 7.394399642944336 19.99079895019531 8.175599098205566 19.20959854125977 L 19.20959854125977 8.175599098205566 C 19.99079895019531 7.394399642944336 21.25710868835449 7.394399642944336 22.03830528259277 8.175599098205566 L 26.55427932739258 12.6915864944458 C 29.76173210144043 10.85691928863525 33.25346755981445 9.461799621582031 36.94680023193359 8.589479446411133 L 36.94680023193359 1.999799489974976 C 36.94680023193359 0.8955061435699463 37.84230422973633 -5.432128773463774e-07 38.94750595092773 -5.432128773463774e-07 L 54.55170440673828 -5.432128773463774e-07 C 55.65690612792969 -5.432128773463774e-07 56.55239868164062 0.8955061435699463 56.55239868164062 1.999799489974976 L 56.55239868164062 8.977812767028809 C 60.05165100097656 9.953652381896973 63.35340118408203 11.40293312072754 66.38471984863281 13.25185298919678 L 71.46090698242188 8.175599098205566 C 72.24211120605469 7.394399642944336 73.50840759277344 7.394399642944336 74.28959655761719 8.175599098205566 L 85.32360076904297 19.20959854125977 C 86.10481262207031 19.99079895019531 86.10481262207031 21.25710678100586 85.32360076904297 22.03830528259277 L 80.05343627929688 27.30854606628418 C 81.7625732421875 30.29653358459473 83.09079742431641 33.53317260742188 83.96966552734375 36.94770431518555 L 91.49941253662109 36.94770431518555 C 92.60459899902344 36.94770431518555 93.49919891357422 37.84320068359375 93.49919891357422 38.94750595092773 L 93.49919891357422 54.5526008605957 C 93.49919891357422 55.65690612792969 92.60459899902344 56.55239868164062 91.49941253662109 56.55239868164062 L 83.96942901611328 56.55239868164062 C 83.09056091308594 59.96693420410156 81.76253509521484 63.20272064208984 80.05341339111328 66.19070434570312 L 85.32360076904297 71.46090698242188 C 86.10481262207031 72.24210357666016 86.10481262207031 73.50839996337891 85.32360076904297 74.28959655761719 L 74.28959655761719 85.32360076904297 C 73.50840759277344 86.10480499267578 72.24211120605469 86.10480499267578 71.46090698242188 85.32360076904297 L 66.38466644287109 80.24737548828125 C 63.35334777832031 82.09628295898438 60.05165100097656 83.5455322265625 56.55239868164062 84.5213623046875 L 56.55239868164062 91.49941253662109 C 56.55239868164062 92.60459899902344 55.65690612792969 93.49919891357422 54.55170440673828 93.49919891357422 Z" stroke="none" fill="#fff"/>
    </g>
    <rect id="Rectangle_166" data-name="Rectangle 166" width="55" height="97" transform="translate(63.336 0.349)" fill="#5bb1ff"/>
    <line id="Line_91" data-name="Line 91" x2="76.803" transform="translate(16.696 46.693)" fill="none" stroke="#fff" stroke-width="2"/>
    <path id="Path_519" data-name="Path 519" d="M0,0H9.6L25.576,12.571H46.8" transform="translate(23.375 54.207)" fill="none" stroke="#fff" stroke-width="2"/>
    <path id="Path_520" data-name="Path 520" d="M0,12.571H26.3L42.272,0H54.68" transform="translate(23.375 26.609)" fill="none" stroke="#fff" stroke-width="2"/>
    <g id="Ellipse_96" data-name="Ellipse 96" transform="translate(76.336 20.349)" fill="#fff" stroke="#fff" stroke-width="2">
      <circle cx="5.5" cy="5.5" r="5.5" stroke="none"/>
      <circle cx="5.5" cy="5.5" r="4.5" fill="none"/>
    </g>
    <g id="Ellipse_98" data-name="Ellipse 98" transform="translate(63.336 61.349)" fill="#fff" stroke="#fff" stroke-width="2">
      <circle cx="5.5" cy="5.5" r="5.5" stroke="none"/>
      <circle cx="5.5" cy="5.5" r="4.5" fill="none"/>
    </g>
    <g id="Ellipse_97" data-name="Ellipse 97" transform="translate(90.336 41.349)" fill="#fff" stroke="#fff" stroke-width="2">
      <circle cx="5.5" cy="5.5" r="5.5" stroke="none"/>
      <circle cx="5.5" cy="5.5" r="4.5" fill="none"/>
    </g>
    <g id="Ellipse_99" data-name="Ellipse 99" transform="translate(100.336 54.349)" fill="#fff" stroke="#fff" stroke-width="2">
      <circle cx="5.5" cy="5.5" r="5.5" stroke="none"/>
      <circle cx="5.5" cy="5.5" r="4.5" fill="none"/>
    </g>
    <path id="Path_521" data-name="Path 521" d="M4569.887,4199.717h-21.846l-19.766-13.594" transform="translate(-4465.205 -4139.227)" fill="none" stroke="#fff" stroke-width="2"/>
  </g>
</svg>
