<svg xmlns="http://www.w3.org/2000/svg" width="181.313" height="108.293" viewBox="0 0 181.313 108.293">
  <g id="Group_71" data-name="Group 71" transform="translate(-1473.261 -515.5)">
    <g id="Group_62" data-name="Group 62" transform="translate(1473.761 516)">
      <path id="Path_60" data-name="Path 60" d="M121.684,108.211H7.239A2.918,2.918,0,0,1,4.33,105.3V9.9A2.918,2.918,0,0,1,7.239,7H150.366a2.918,2.918,0,0,1,2.909,2.909v12.6" transform="translate(4.088 -7)" fill="none" stroke="#3a9ef9" stroke-linejoin="round" stroke-width="1"/>
      <path id="Path_61" data-name="Path 61" d="M132.276,244.319H6.944c-1.436,0-2.614-.7-2.614-1.554v-.17c0-.857,1.186-1.554,2.614-1.554H129.45C130.885,241.04,129.208,244.319,132.276,244.319Z" transform="translate(-4.33 -137.025)" fill="none" stroke="#3a9ef9" stroke-linejoin="round" stroke-width="1"/>
      <line id="Line_30" data-name="Line 30" x2="148.945" transform="translate(8.418 6.896)" fill="none" stroke="#3a9ef9" stroke-linejoin="round" stroke-width="1"/>
      <line id="Line_31" data-name="Line 31" x2="4.907" transform="translate(146.238 3.375)" fill="none" stroke="#3a9ef9" stroke-linejoin="round" stroke-width="2"/>
      <rect id="Rectangle_59" data-name="Rectangle 59" width="52.117" height="89.329" rx="4" transform="translate(128.196 16.731)" fill="none" stroke="#0ef" stroke-linejoin="round" stroke-width="1"/>
      <line id="Line_32" data-name="Line 32" x2="52.117" transform="translate(128.332 23.183)" fill="none" stroke="#0ef" stroke-linejoin="round" stroke-width="1"/>
      <line id="Line_33" data-name="Line 33" x2="52.117" transform="translate(128.332 101.779)" fill="none" stroke="#0ef" stroke-linejoin="round" stroke-width="1"/>
      <line id="Line_34" data-name="Line 34" x2="4.907" transform="translate(151.937 103.961)" fill="none" stroke="#0ef" stroke-linejoin="round" stroke-width="1"/>
      <ellipse id="Ellipse_9" data-name="Ellipse 9" cx="0.515" cy="0.515" rx="0.515" ry="0.515" transform="translate(147.668 19.473)" fill="rgba(0,0,0,0)" stroke="#0ef" stroke-linejoin="round" stroke-width="0.5"/>
      <rect id="Rectangle_60" data-name="Rectangle 60" width="8.612" height="0.907" rx="0.453" transform="translate(150.058 19.592)" fill="rgba(0,0,0,0)" stroke="#0ef" stroke-linejoin="round" stroke-width="0.5"/>
      <g id="Group_90" data-name="Group 90" opacity="0.14">
        <g id="Group_89" data-name="Group 89">
          <rect id="Rectangle_39" data-name="Rectangle 39" width="42.466" height="9.681" transform="translate(13.994 10.562)" fill="none" stroke="#fff" stroke-width="1"/>
          <rect id="Rectangle_40" data-name="Rectangle 40" width="49.287" height="9.681" transform="translate(13.994 77.654)" fill="none" stroke="#fff" stroke-width="1"/>
          <rect id="Rectangle_41" data-name="Rectangle 41" width="110.816" height="5.219" transform="translate(13.994 91.534)" fill="none" stroke="#fff" stroke-width="1"/>
          <rect id="Rectangle_42" data-name="Rectangle 42" width="42.466" height="9.681" transform="translate(82.344 77.654)" fill="none" stroke="#fff" stroke-width="1"/>
          <rect id="Rectangle_44" data-name="Rectangle 44" width="42.466" height="9.681" transform="translate(82.344 10.562)" fill="none" stroke="#fff" stroke-width="1"/>
          <rect id="Rectangle_46" data-name="Rectangle 46" width="110.816" height="2.94" transform="translate(13.994 24.208)" fill="none" stroke="#fff" stroke-width="1"/>
          <rect id="Rectangle_47" data-name="Rectangle 47" width="102.345" height="2.94" transform="translate(13.994 30.285)" fill="none" stroke="#fff" stroke-width="1"/>
          <rect id="Rectangle_48" data-name="Rectangle 48" width="74.406" height="2.94" transform="translate(13.994 36.363)" fill="none" stroke="#fff" stroke-width="1"/>
          <rect id="Rectangle_49" data-name="Rectangle 49" width="102.345" height="2.94" transform="translate(13.994 42.44)" fill="none" stroke="#fff" stroke-width="1"/>
          <rect id="Rectangle_50" data-name="Rectangle 50" width="42.466" height="2.94" transform="translate(13.994 52.98)" fill="none" stroke="#fff" stroke-width="1"/>
          <rect id="Rectangle_51" data-name="Rectangle 51" width="38.475" height="2.94" transform="translate(13.994 59.057)" fill="none" stroke="#fff" stroke-width="1"/>
          <rect id="Rectangle_52" data-name="Rectangle 52" width="35.06" height="2.94" transform="translate(13.994 65.134)" fill="none" stroke="#fff" stroke-width="1"/>
          <rect id="Rectangle_53" data-name="Rectangle 53" width="38.475" height="2.94" transform="translate(13.994 71.212)" fill="none" stroke="#fff" stroke-width="1"/>
          <rect id="Rectangle_54" data-name="Rectangle 54" width="42.466" height="2.94" transform="translate(82.344 52.98)" fill="none" stroke="#fff" stroke-width="1"/>
          <rect id="Rectangle_55" data-name="Rectangle 55" width="38.475" height="2.94" transform="translate(82.344 59.057)" fill="none" stroke="#fff" stroke-width="1"/>
          <rect id="Rectangle_56" data-name="Rectangle 56" width="35.06" height="2.94" transform="translate(82.344 65.134)" fill="none" stroke="#fff" stroke-width="1"/>
          <rect id="Rectangle_57" data-name="Rectangle 57" width="38.475" height="2.94" transform="translate(82.344 71.212)" fill="none" stroke="#fff" stroke-width="1"/>
          <rect id="Rectangle_61" data-name="Rectangle 61" width="47.664" height="9.681" transform="translate(130.704 25.167)" fill="none" stroke="#fff" stroke-width="1"/>
          <rect id="Rectangle_62" data-name="Rectangle 62" width="47.664" height="4.841" transform="translate(130.704 92.7)" fill="none" stroke="#fff" stroke-width="1"/>
          <rect id="Rectangle_63" data-name="Rectangle 63" width="47.664" height="2.94" transform="translate(130.704 38.809)" fill="none" stroke="#fff" stroke-width="1"/>
          <rect id="Rectangle_64" data-name="Rectangle 64" width="43.184" height="2.94" transform="translate(130.704 44.887)" fill="none" stroke="#fff" stroke-width="1"/>
          <rect id="Rectangle_65" data-name="Rectangle 65" width="39.351" height="2.94" transform="translate(130.704 50.969)" fill="none" stroke="#fff" stroke-width="1"/>
          <rect id="Rectangle_66" data-name="Rectangle 66" width="43.184" height="2.94" transform="translate(130.704 57.046)" fill="none" stroke="#fff" stroke-width="1"/>
          <rect id="Rectangle_67" data-name="Rectangle 67" width="22.457" height="2.94" transform="translate(130.704 67.585)" fill="none" stroke="#fff" stroke-width="1"/>
          <rect id="Rectangle_68" data-name="Rectangle 68" width="20.349" height="2.94" transform="translate(130.704 73.663)" fill="none" stroke="#fff" stroke-width="1"/>
          <rect id="Rectangle_69" data-name="Rectangle 69" width="18.54" height="2.94" transform="translate(130.704 79.74)" fill="none" stroke="#fff" stroke-width="1"/>
          <rect id="Rectangle_70" data-name="Rectangle 70" width="20.349" height="2.94" transform="translate(130.704 85.817)" fill="none" stroke="#fff" stroke-width="1"/>
        </g>
        <rect id="Rectangle_71" data-name="Rectangle 71" width="22.457" height="2.94" transform="translate(155.911 67.585)" fill="none" stroke="#fff" stroke-width="1"/>
        <rect id="Rectangle_72" data-name="Rectangle 72" width="20.349" height="2.94" transform="translate(155.911 73.663)" fill="none" stroke="#fff" stroke-width="1"/>
        <rect id="Rectangle_73" data-name="Rectangle 73" width="18.54" height="2.94" transform="translate(155.911 79.74)" fill="none" stroke="#fff" stroke-width="1"/>
        <rect id="Rectangle_74" data-name="Rectangle 74" width="20.349" height="2.94" transform="translate(155.911 85.817)" fill="none" stroke="#fff" stroke-width="1"/>
      </g>
    </g>
    <line id="Line_35" data-name="Line 35" x1="74.676" transform="translate(1579.675 581.405)" fill="none" stroke="#0ef" stroke-width="1"/>
    <line id="Line_36" data-name="Line 36" x1="9.936" transform="translate(1591.132 566.129)" fill="none" stroke="#0ef" stroke-width="1"/>
    <g id="Ellipse_10" data-name="Ellipse 10" transform="translate(1571.287 577.12)" fill="none" stroke="#0ef" stroke-width="1">
      <ellipse cx="4.353" cy="4.179" rx="4.353" ry="4.179" stroke="none"/>
      <ellipse cx="4.353" cy="4.179" rx="3.853" ry="3.679" fill="none"/>
    </g>
    <g id="Ellipse_11" data-name="Ellipse 11" transform="translate(1582.78 561.797)" fill="none" stroke="#0ef" stroke-width="1">
      <ellipse cx="4.353" cy="4.179" rx="4.353" ry="4.179" stroke="none"/>
      <ellipse cx="4.353" cy="4.179" rx="3.853" ry="3.679" fill="none"/>
    </g>
  </g>
</svg>
