<svg xmlns="http://www.w3.org/2000/svg" width="1658" height="353.09" viewBox="0 0 1658 353.09">
  <g id="Group_201" data-name="Group 201" transform="translate(-139 -2242.389)">
    <g id="Rectangle_171" data-name="Rectangle 171" transform="translate(1462 2250)" fill="none" stroke="#707070" stroke-width="1" stroke-dasharray="10">
      <rect width="335" height="335" rx="167.5" stroke="none"/>
      <rect x="0.5" y="0.5" width="334" height="334" rx="167" fill="none"/>
    </g>
    <rect id="Rectangle_149" data-name="Rectangle 149" width="295" height="295" rx="147.5" transform="translate(1482 2270)" fill="#69c85e"/>
    <text id="Release_to_Market" data-name="Release
to Market" transform="translate(1630.095 2472.022)" fill="#fff" font-size="29" font-family="Europa-Bold, Europa" font-weight="700" letter-spacing="0.05em"><tspan x="-54" y="0">Release</tspan><tspan font-size="18" font-family="Europa-Light, Europa" font-weight="300"><tspan x="-41" y="26">to Market</tspan></tspan></text>
    <g id="Group_200" data-name="Group 200" transform="translate(1570.096 2316.938)">
      <g id="Group_199" data-name="Group 199" transform="translate(0 0)">
        <g id="Polygon_2" data-name="Polygon 2" transform="translate(103.593 0.062) rotate(90)" fill="none">
          <path d="M78,0l26,44.5L78,89H26L0,44.5,26,0Z" stroke="none"/>
          <path d="M 27.14780426025391 2 L 2.31634521484375 44.5 L 27.14780426025391 87 L 76.85218811035156 87 L 101.6836547851562 44.5 L 76.85218811035156 2 L 27.14780426025391 2 M 26 0 L 78 0 L 104 44.5 L 78 89 L 26 89 L 0 44.5 L 26 0 Z" stroke="none" fill="#fff"/>
        </g>
        <path id="Path_535" data-name="Path 535" d="M0,57.593V7.14" transform="translate(59.405 44.522)" fill="none" stroke="#fff" stroke-width="2"/>
        <path id="Path_534" data-name="Path 534" d="M5773.359,4274.028l44.109,25.667,44.049-25.6" transform="translate(-5758.126 -4248.033)" fill="none" stroke="#fff" stroke-width="2"/>
        <g id="Path_536" data-name="Path 536" transform="translate(10 25.807)" fill="#69c85e">
          <path d="M 33.85823440551758 36.84786987304688 L -8.245693206787109 11.89737796783447 L 6.360141754150391 0.2127038985490799 L 48.46408081054688 25.16318702697754 L 33.85823440551758 36.84786987304688 Z" stroke="none"/>
          <path d="M 6.445041656494141 1.425407409667969 L -6.491405487060547 11.77456283569336 L 33.77334213256836 35.63516235351562 L 46.70978927612305 25.2859992980957 L 6.445041656494141 1.425407409667969 M 6.275241851806641 -1.000003814697266 L 50.21837997436523 25.04037666320801 L 33.94313812255859 38.06057739257812 L -10 12.02018737792969 L 6.275241851806641 -1.000003814697266 Z" stroke="none" fill="#fff"/>
        </g>
        <g id="Path_537" data-name="Path 537" transform="translate(68.591 25.807)" fill="#69c85e">
          <path d="M 6.360142230987549 36.84786987304688 L -8.245694160461426 25.16318702697754 L 33.85824203491211 0.2127004265785217 L 48.46408462524414 11.89737415313721 L 6.360142230987549 36.84786987304688 Z" stroke="none"/>
          <path d="M 33.77333831787109 1.425407409667969 L -6.491409301757812 25.2859992980957 L 6.445037841796875 35.63516235351562 L 46.70978546142578 11.77456283569336 L 33.77333831787109 1.425407409667969 M 33.94313812255859 -1.000003814697266 L 50.21837997436523 12.02018737792969 L 6.275241851806641 38.06057739257812 L -10 25.04037666320801 L 33.94313812255859 -1.000003814697266 Z" stroke="none" fill="#fff"/>
        </g>
      </g>
      <g id="Union_3" data-name="Union 3" transform="translate(47.593 7.062)" fill="none">
        <path d="M6,33V16.5H0L6,8.25,12,0l6,8.25,6,8.25H18V33Z" stroke="none"/>
        <path d="M 16.00043106079102 31 L 16.00043106079102 14.5 L 20.07262802124023 14.5 L 11.99974632263184 3.400283336639404 L 3.927536487579346 14.5 L 8.000000953674316 14.5 L 8.000000953674316 31 L 16.00043106079102 31 M 18.00043106079102 33 L 6.000000953674316 33 L 6.000000953674316 16.5 L 9.5367431640625e-07 16.5 L 11.99957084655762 0 L 24 16.5 L 18.00043106079102 16.5 L 18.00043106079102 33 Z" stroke="none" fill="#fff"/>
      </g>
    </g>
    <rect id="Rectangle_148" data-name="Rectangle 148" width="295" height="295" rx="147.5" transform="translate(1213 2270)" fill="#3aceee" opacity="0.95"/>
    <text id="Deploy_Maintenance" data-name="Deploy
&amp; Maintenance" transform="translate(1361 2473)" fill="#fff" font-size="30" font-family="Europa-Bold, Europa" font-weight="700" letter-spacing="0.05em"><tspan x="-51" y="0">Deploy</tspan><tspan font-size="18" font-family="Europa-Light, Europa" font-weight="300"><tspan x="-63" y="26">&amp; Maintenance</tspan></tspan></text>
    <g id="Group_198" data-name="Group 198" transform="translate(1301.02 2310.075)">
      <g id="Rectangle_167" data-name="Rectangle 167" transform="translate(5.98 23.925)" fill="none" stroke="#fff" stroke-width="2">
        <rect width="110" height="76" rx="3" stroke="none"/>
        <rect x="1" y="1" width="108" height="74" rx="2" fill="none"/>
      </g>
      <g id="Rectangle_168" data-name="Rectangle 168" transform="translate(-0.02 100.925)" fill="none" stroke="#fff" stroke-width="2">
        <rect width="121" height="7" rx="3" stroke="none"/>
        <rect x="1" y="1" width="119" height="5" rx="2" fill="none"/>
      </g>
      <circle id="Ellipse_102" data-name="Ellipse 102" cx="28.5" cy="28.5" r="28.5" transform="translate(31.981 -0.075)" fill="#3aceee"/>
      <g id="Ellipse_101" data-name="Ellipse 101" transform="translate(36.981 4.925)" fill="none" stroke="#fff" stroke-width="2">
        <circle cx="24.5" cy="24.5" r="24.5" stroke="none"/>
        <circle cx="24.5" cy="24.5" r="23.5" fill="none"/>
      </g>
      <g id="Union_2" data-name="Union 2" transform="translate(49.98 65.925)" fill="none">
        <path d="M5.182,21V12.25H0L5.182,5.568V5.25h.247L9.5,0l4.071,5.25h.247v.318L19,12.25H13.818V21Z" stroke="none"/>
        <path d="M 11.81838035583496 19 L 11.81838035583496 10.25016021728516 L 14.91813468933105 10.25016021728516 L 9.5 3.263585090637207 L 4.081864833831787 10.25016021728516 L 7.181620121002197 10.25016021728516 L 7.181620121002197 19 L 11.81838035583496 19 M 13.81838035583496 21 L 5.181620121002197 21 L 5.181620121002197 12.25016021728516 L 0 12.25016021728516 L 5.181620121002197 5.568339824676514 L 5.181620121002197 5.25 L 5.428569793701172 5.25 L 9.5 0 L 13.57143020629883 5.25 L 13.81838035583496 5.25 L 13.81838035583496 5.568339824676514 L 19 12.25016021728516 L 13.81838035583496 12.25016021728516 L 13.81838035583496 21 Z" stroke="none" fill="#fff"/>
      </g>
      <path id="Path_526" data-name="Path 526" d="M5107,4161.877v46.7" transform="translate(-5045.766 -4155.825)" fill="none" stroke="#fff" stroke-width="2"/>
      <path id="Path_527" data-name="Path 527" d="M5109.035,4161.877s-4.731,11.358-4.731,23.033,4.731,23.668,4.731,23.668" transform="translate(-5051.309 -4156.154)" fill="none" stroke="#fff" stroke-linecap="round" stroke-width="2"/>
      <path id="Path_530" data-name="Path 530" d="M5104.3,4161.877s4.731,11.356,4.731,23.032-4.731,23.669-4.731,23.669" transform="translate(-5039.559 -4156.154)" fill="none" stroke="#fff" stroke-linecap="round" stroke-width="2"/>
      <path id="Path_528" data-name="Path 528" d="M5110.877,4163.69s-5.854,9.926-5.854,19.852,5.854,19.851,5.854,19.851" transform="translate(-5061.39 -4154.468)" fill="none" stroke="#fff" stroke-linecap="round" stroke-width="2"/>
      <path id="Path_529" data-name="Path 529" d="M5105.023,4163.689s5.853,9.927,5.853,19.852-5.853,19.852-5.853,19.852" transform="translate(-5032.041 -4154.467)" fill="none" stroke="#fff" stroke-linecap="round" stroke-width="2"/>
      <path id="Path_531" data-name="Path 531" d="M5093.412,4175h47.465" transform="translate(-5056.015 -4145.926)" fill="none" stroke="#fff" stroke-width="2"/>
      <path id="Path_532" data-name="Path 532" d="M4.731,0S0,10.491,0,21.275,4.731,43.139,4.731,43.139" transform="translate(39.56 42.576) rotate(-90)" fill="none" stroke="#fff" stroke-linecap="round" stroke-width="2"/>
      <path id="Path_533" data-name="Path 533" d="M0,0S4.731,10.83,4.731,21.965,0,44.539,0,44.539" transform="translate(38.924 22.057) rotate(-90)" fill="none" stroke="#fff" stroke-linecap="round" stroke-width="2"/>
    </g>
    <rect id="Rectangle_147" data-name="Rectangle 147" width="295" height="295" rx="147.5" transform="translate(944 2270)" fill="#f15170" opacity="0.95"/>
    <text id="Verification_Quality_Assurance" data-name="Verification
&amp; Quality Assurance" transform="translate(1091.5 2473)" fill="#fff" font-size="30" font-family="Europa-Bold, Europa" font-weight="700" letter-spacing="0.05em"><tspan x="-85" y="0">Verification</tspan><tspan font-size="18" font-family="Europa-Light, Europa" font-weight="300"><tspan x="-86" y="26">&amp; Quality Assurance</tspan></tspan></text>
    <g id="Group_197" data-name="Group 197" transform="translate(1049.447 2324.021)">
      <g id="Path_522" data-name="Path 522" transform="translate(0)" fill="none" stroke-linecap="round" stroke-linejoin="bevel">
        <path d="M0,0H48.6L68.308,19.4l.067,71.553H0Z" stroke="none"/>
        <path d="M 1.999992370605469 1.999992370605469 L 1.999992370605469 88.95741271972656 L 66.37284851074219 88.95741271972656 L 66.30872344970703 20.24248504638672 L 47.78053283691406 1.999992370605469 L 1.999992370605469 1.999992370605469 M -7.62939453125e-06 -7.62939453125e-06 L 48.59987640380859 -7.62939453125e-06 L 68.30794525146484 19.40416717529297 L 68.37471771240234 90.95741271972656 L -7.62939453125e-06 90.95741271972656 L -7.62939453125e-06 -7.62939453125e-06 Z" stroke="none" fill="#fff"/>
      </g>
      <line id="Line_92" data-name="Line 92" x2="28.051" transform="translate(7.889 34.309)" fill="none" stroke="#fff" stroke-linecap="round" stroke-width="2"/>
      <line id="Line_93" data-name="Line 93" x2="26.298" transform="translate(7.889 43.883)" fill="none" stroke="#fff" stroke-linecap="round" stroke-width="2"/>
      <line id="Line_94" data-name="Line 94" x2="19.285" transform="translate(7.889 53.457)" fill="none" stroke="#fff" stroke-linecap="round" stroke-width="2"/>
      <line id="Line_96" data-name="Line 96" x2="10.519" transform="translate(7.889 74.302)" fill="none" stroke="#fff" stroke-linecap="round" stroke-width="2"/>
      <line id="Line_95" data-name="Line 95" x2="29.804" transform="translate(7.889 61.436)" fill="none" stroke="#fff" stroke-linecap="round" stroke-width="2"/>
      <g id="Path_524" data-name="Path 524" transform="translate(48.672)" fill="none">
        <path d="M0,0,19.7,19.7H0Z" stroke="none"/>
        <path d="M 2.000003814697266 4.828424453735352 L 2.000003814697266 17.70292472839355 L 14.87450408935547 17.70292472839355 L 2.000003814697266 4.828424453735352 M 3.814697265625e-06 3.814697265625e-06 L 19.70292472839355 19.70292472839355 L 3.814697265625e-06 19.70292472839355 L 3.814697265625e-06 3.814697265625e-06 Z" stroke="none" fill="#fff"/>
      </g>
      <g id="Ellipse_100" data-name="Ellipse 100" transform="translate(41.106 29.645)" fill="#f15170" stroke="#fff" stroke-width="2">
        <ellipse cx="21.5" cy="21" rx="21.5" ry="21" stroke="none"/>
        <ellipse cx="21.5" cy="21" rx="20.5" ry="20" fill="none"/>
      </g>
      <path id="Path_525" data-name="Path 525" d="M4828.106,4363.2l6.7,6.7,14.552-14.552" transform="translate(-4773.57 -4311.992)" fill="none" stroke="#fff" stroke-linecap="round" stroke-width="2"/>
    </g>
    <rect id="Rectangle_146" data-name="Rectangle 146" width="295" height="295" rx="147.5" transform="translate(677 2270)" fill="#5bb1ff" opacity="0.95"/>
    <text id="Development_Implementation" data-name="Development
&amp; Implementation" transform="translate(825 2472)" fill="#fff" font-size="29" font-family="Europa-Bold, Europa" font-weight="700" letter-spacing="0.05em"><tspan x="-93" y="0">Development</tspan><tspan font-size="18" font-family="Europa-Light, Europa" font-weight="300"><tspan x="-75" y="26">&amp; Implementation</tspan></tspan></text>
    <g id="Group_195" data-name="Group 195" transform="translate(775.664 2320.651)">
      <g id="Union_1" data-name="Union 1" transform="translate(0 1.613)" fill="none">
        <path d="M38.948,93.5a2,2,0,0,1-2-2V84.91a38.956,38.956,0,0,1-10.392-4.1l-4.517,4.517a2,2,0,0,1-2.829,0L8.176,74.29a2,2,0,0,1,0-2.828L12.5,67.139A38.994,38.994,0,0,1,8.021,56.552H2a2,2,0,0,1-2-2V38.948a2,2,0,0,1,2-2H8.021A39,39,0,0,1,12.5,26.36L8.176,22.038a2,2,0,0,1,0-2.829L19.21,8.176a2,2,0,0,1,2.829,0l4.516,4.516a38.961,38.961,0,0,1,10.393-4.1V2a2,2,0,0,1,2-2h15.6a2,2,0,0,1,2,2V8.978a38.993,38.993,0,0,1,9.832,4.274l5.076-5.076a2,2,0,0,1,2.829,0L85.324,19.21a2,2,0,0,1,0,2.829l-5.27,5.27a38.983,38.983,0,0,1,3.916,9.639H91.5a2,2,0,0,1,2,2V54.553a2,2,0,0,1-2,2h-7.53a38.977,38.977,0,0,1-3.916,9.638l5.27,5.27a2,2,0,0,1,0,2.829L74.29,85.324a2,2,0,0,1-2.829,0l-5.076-5.076a38.992,38.992,0,0,1-9.832,4.274V91.5a2,2,0,0,1-2,2Z" stroke="none"/>
        <path d="M 54.55239868164062 91.49941253662109 L 54.55239868164062 83.00278472900391 L 56.01515960693359 82.59486389160156 C 59.29127883911133 81.68126678466797 62.42969131469727 80.31698608398438 65.34322357177734 78.5399169921875 L 66.68638610839844 77.72068023681641 L 72.87538909912109 83.90938568115234 L 83.90938568115234 72.8751220703125 L 77.55854797363281 66.52426910400391 L 78.31734466552734 65.19767761230469 C 79.96010589599609 62.32571792602539 81.21009063720703 59.24929428100586 82.03256225585938 56.05386734008789 L 82.41901397705078 54.55239868164062 L 91.49919891357422 54.5526008605957 L 91.49941253662109 38.94770431518555 L 82.41925048828125 38.94770431518555 L 82.03279876708984 37.44623947143555 C 81.21017456054688 34.25019836425781 79.96012115478516 31.17349243164062 78.3173828125 28.30157279968262 L 77.55857086181641 26.97500038146973 L 83.90938568115234 20.62381362915039 L 72.87512969970703 9.589799880981445 L 66.68645477294922 15.77855968475342 L 65.34327697753906 14.95930576324463 C 62.42974472045898 13.18222618103027 59.29130554199219 11.81793308258057 56.01515960693359 10.90430641174316 L 54.55239868164062 10.49638652801514 L 54.55170440673828 1.999999403953552 L 38.94680023193359 1.999799489974976 L 38.94680023193359 10.17213249206543 L 37.40652084350586 10.53591918945312 C 33.95302581787109 11.35159969329834 30.63590621948242 12.66095924377441 27.54730606079102 14.42763900756836 L 26.2207202911377 15.18645286560059 L 20.62381362915039 9.589813232421875 L 9.589813232421875 20.62409210205078 L 15.02431964874268 26.0585994720459 L 14.20506572723389 27.40176010131836 C 12.29741287231445 30.52937316894531 10.86849308013916 33.9088249206543 9.957999229431152 37.44623947143555 L 9.571533203125 38.94770431518555 L 1.999999403953552 38.94750595092773 L 1.999799489974976 54.55239868164062 L 9.571785926818848 54.55239868164062 L 9.958239555358887 56.05387878417969 C 10.86855983734131 59.59062576293945 12.29750633239746 62.96994781494141 14.20539951324463 66.09796142578125 L 15.02463912963867 67.44111633300781 L 9.590946197509766 72.87651824951172 L 20.62407875061035 83.91030883789062 L 26.22125244140625 78.31304931640625 L 27.54785346984863 79.07186889648438 C 30.63603973388672 80.83830261230469 33.95297241210938 82.14756011962891 37.40653228759766 82.96326446533203 L 38.94680023193359 83.32706451416016 L 38.94750595092773 91.49919891357422 L 54.55239868164062 91.49941253662109 M 54.55170440673828 93.49919891357422 L 38.94750595092773 93.49919891357422 C 37.84230422973633 93.49919891357422 36.94680023193359 92.60459899902344 36.94680023193359 91.49941253662109 L 36.94680023193359 84.90970611572266 C 33.25346755981445 84.03737640380859 29.76227951049805 82.64258575439453 26.5548267364502 80.80792236328125 L 22.03830528259277 85.32450866699219 C 21.25710868835449 86.10481262207031 19.99079895019531 86.10481262207031 19.20959854125977 85.32450866699219 L 8.175599098205566 74.28959655761719 C 7.394399642944336 73.50930786132812 7.394399642944336 72.24299621582031 8.175599098205566 71.46179962158203 L 12.49794578552246 67.13939666748047 C 10.51691913604736 63.8914794921875 8.99406623840332 60.33150482177734 8.02137279510498 56.55239868164062 L 1.999799489974976 56.55239868164062 C 0.8955061435699463 56.55239868164062 -5.432128773463774e-07 55.65690612792969 -5.432128773463774e-07 54.5526008605957 L -5.432128773463774e-07 38.94750595092773 C -5.432128773463774e-07 37.84320068359375 0.8955061435699463 36.94770431518555 1.999799489974976 36.94770431518555 L 8.021132469177246 36.94770431518555 C 8.993839263916016 33.16859817504883 10.51658630371094 29.60824012756348 12.49761295318604 26.36031913757324 L 8.175599098205566 22.03830528259277 C 7.394399642944336 21.25710678100586 7.394399642944336 19.99079895019531 8.175599098205566 19.20959854125977 L 19.20959854125977 8.175599098205566 C 19.99079895019531 7.394399642944336 21.25710868835449 7.394399642944336 22.03830528259277 8.175599098205566 L 26.55427932739258 12.6915864944458 C 29.76173210144043 10.85691928863525 33.25346755981445 9.461799621582031 36.94680023193359 8.589479446411133 L 36.94680023193359 1.999799489974976 C 36.94680023193359 0.8955061435699463 37.84230422973633 -5.432128773463774e-07 38.94750595092773 -5.432128773463774e-07 L 54.55170440673828 -5.432128773463774e-07 C 55.65690612792969 -5.432128773463774e-07 56.55239868164062 0.8955061435699463 56.55239868164062 1.999799489974976 L 56.55239868164062 8.977812767028809 C 60.05165100097656 9.953652381896973 63.35340118408203 11.40293312072754 66.38471984863281 13.25185298919678 L 71.46090698242188 8.175599098205566 C 72.24211120605469 7.394399642944336 73.50840759277344 7.394399642944336 74.28959655761719 8.175599098205566 L 85.32360076904297 19.20959854125977 C 86.10481262207031 19.99079895019531 86.10481262207031 21.25710678100586 85.32360076904297 22.03830528259277 L 80.05343627929688 27.30854606628418 C 81.7625732421875 30.29653358459473 83.09079742431641 33.53317260742188 83.96966552734375 36.94770431518555 L 91.49941253662109 36.94770431518555 C 92.60459899902344 36.94770431518555 93.49919891357422 37.84320068359375 93.49919891357422 38.94750595092773 L 93.49919891357422 54.5526008605957 C 93.49919891357422 55.65690612792969 92.60459899902344 56.55239868164062 91.49941253662109 56.55239868164062 L 83.96942901611328 56.55239868164062 C 83.09056091308594 59.96693420410156 81.76253509521484 63.20272064208984 80.05341339111328 66.19070434570312 L 85.32360076904297 71.46090698242188 C 86.10481262207031 72.24210357666016 86.10481262207031 73.50839996337891 85.32360076904297 74.28959655761719 L 74.28959655761719 85.32360076904297 C 73.50840759277344 86.10480499267578 72.24211120605469 86.10480499267578 71.46090698242188 85.32360076904297 L 66.38466644287109 80.24737548828125 C 63.35334777832031 82.09628295898438 60.05165100097656 83.5455322265625 56.55239868164062 84.5213623046875 L 56.55239868164062 91.49941253662109 C 56.55239868164062 92.60459899902344 55.65690612792969 93.49919891357422 54.55170440673828 93.49919891357422 Z" stroke="none" fill="#fff"/>
      </g>
      <rect id="Rectangle_166" data-name="Rectangle 166" width="55" height="97" transform="translate(63.336 0.349)" fill="#5bb1ff"/>
      <line id="Line_91" data-name="Line 91" x2="76.803" transform="translate(16.696 46.693)" fill="none" stroke="#fff" stroke-width="2"/>
      <path id="Path_519" data-name="Path 519" d="M0,0H9.6L25.576,12.571H46.8" transform="translate(23.375 54.207)" fill="none" stroke="#fff" stroke-width="2"/>
      <path id="Path_520" data-name="Path 520" d="M0,12.571H26.3L42.272,0H54.68" transform="translate(23.375 26.609)" fill="none" stroke="#fff" stroke-width="2"/>
      <g id="Ellipse_96" data-name="Ellipse 96" transform="translate(76.336 20.349)" fill="#fff" stroke="#fff" stroke-width="2">
        <circle cx="5.5" cy="5.5" r="5.5" stroke="none"/>
        <circle cx="5.5" cy="5.5" r="4.5" fill="none"/>
      </g>
      <g id="Ellipse_98" data-name="Ellipse 98" transform="translate(63.336 61.349)" fill="#fff" stroke="#fff" stroke-width="2">
        <circle cx="5.5" cy="5.5" r="5.5" stroke="none"/>
        <circle cx="5.5" cy="5.5" r="4.5" fill="none"/>
      </g>
      <g id="Ellipse_97" data-name="Ellipse 97" transform="translate(90.336 41.349)" fill="#fff" stroke="#fff" stroke-width="2">
        <circle cx="5.5" cy="5.5" r="5.5" stroke="none"/>
        <circle cx="5.5" cy="5.5" r="4.5" fill="none"/>
      </g>
      <g id="Ellipse_99" data-name="Ellipse 99" transform="translate(100.336 54.349)" fill="#fff" stroke="#fff" stroke-width="2">
        <circle cx="5.5" cy="5.5" r="5.5" stroke="none"/>
        <circle cx="5.5" cy="5.5" r="4.5" fill="none"/>
      </g>
      <path id="Path_521" data-name="Path 521" d="M4569.887,4199.717h-21.846l-19.766-13.594" transform="translate(-4465.205 -4139.227)" fill="none" stroke="#fff" stroke-width="2"/>
    </g>
    <rect id="Rectangle_145" data-name="Rectangle 145" width="295.037" height="295.037" rx="147.518" transform="translate(407.811 2269.72)" fill="#7d7ae4" opacity="0.95"/>
    <text id="Wireframe_Design_UI_UX" data-name="Wireframe
&amp; Design UI/UX" transform="translate(555.329 2473)" fill="#fff" font-size="30" font-family="Europa-Bold, Europa" font-weight="700" letter-spacing="0.05em"><tspan x="-78" y="0">Wireframe</tspan><tspan font-size="18" font-family="Europa-Light, Europa" font-weight="300"><tspan x="-67" y="26">&amp; Design UI/UX</tspan></tspan></text>
    <g id="Group_194" data-name="Group 194" transform="translate(489.326 2323.585)">
      <g id="Rectangle_158" data-name="Rectangle 158" transform="translate(0 0)" fill="none" stroke="#fff" stroke-width="2">
        <rect width="133.183" height="87.78" rx="5" stroke="none"/>
        <rect x="1" y="1" width="131.183" height="85.78" rx="4" fill="none"/>
      </g>
      <line id="Line_85" data-name="Line 85" x2="125.926" transform="translate(1.435 12.249)" fill="none" stroke="#fff" stroke-linecap="round" stroke-width="2"/>
      <g id="Rectangle_159" data-name="Rectangle 159" transform="translate(17.152 24.215)" fill="none" stroke="#fff" stroke-width="2">
        <rect width="22.197" height="33.296" rx="3" stroke="none"/>
        <rect x="1" y="1" width="20.197" height="31.296" rx="2" fill="none"/>
      </g>
      <g id="Rectangle_160" data-name="Rectangle 160" transform="translate(54.484 24.215)" fill="none" stroke="#fff" stroke-width="2">
        <rect width="22.197" height="33.296" rx="3" stroke="none"/>
        <rect x="1" y="1" width="20.197" height="31.296" rx="2" fill="none"/>
      </g>
      <g id="Rectangle_161" data-name="Rectangle 161" transform="translate(91.815 24.215)" fill="none" stroke="#fff" stroke-width="2">
        <rect width="22.197" height="33.296" rx="3" stroke="none"/>
        <rect x="1" y="1" width="20.197" height="31.296" rx="2" fill="none"/>
      </g>
      <line id="Line_86" data-name="Line 86" x2="13.057" transform="translate(59.257 49.553)" fill="none" stroke="#fff" stroke-linecap="round" stroke-width="2"/>
      <line id="Line_87" data-name="Line 87" x2="13.057" transform="translate(59.257 45.823)" fill="none" stroke="#fff" stroke-linecap="round" stroke-width="2"/>
      <line id="Line_88" data-name="Line 88" x2="13.057" transform="translate(59.257 42.092)" fill="none" stroke="#fff" stroke-linecap="round" stroke-width="2"/>
      <g id="Ellipse_92" data-name="Ellipse 92" transform="translate(62.556 30.269)" fill="none" stroke="#fff" stroke-width="2">
        <circle cx="3.531" cy="3.531" r="3.531" stroke="none"/>
        <circle cx="3.531" cy="3.531" r="2.531" fill="none"/>
      </g>
      <line id="Line_89" data-name="Line 89" x2="74.609" transform="translate(29.413 70.071)" fill="none" stroke="#fff" stroke-linecap="round" stroke-width="2"/>
      <line id="Line_90" data-name="Line 90" y1="9.326" transform="translate(66.718 60.744)" fill="none" stroke="#fff" stroke-linecap="round" stroke-width="2"/>
      <g id="Ellipse_93" data-name="Ellipse 93" transform="translate(23.206 65.583)" fill="none" stroke="#fff" stroke-width="2">
        <circle cx="4.54" cy="4.54" r="4.54" stroke="none"/>
        <circle cx="4.54" cy="4.54" r="3.54" fill="none"/>
      </g>
      <g id="Ellipse_94" data-name="Ellipse 94" transform="translate(100.896 65.583)" fill="none" stroke="#fff" stroke-width="2">
        <ellipse cx="5.045" cy="4.54" rx="5.045" ry="4.54" stroke="none"/>
        <ellipse cx="5.045" cy="4.54" rx="4.045" ry="3.54" fill="none"/>
      </g>
    </g>
    <rect id="Rectangle_144" data-name="Rectangle 144" width="295" height="295" rx="147.5" transform="translate(139 2270)" fill="#f9d94e" opacity="0.95"/>
    <text id="Analysis_the_Scope_of_work" data-name="Analysis
the Scope of work" transform="translate(287 2473)" fill="#fff" font-size="30" font-family="Europa-Bold, Europa" font-weight="700" letter-spacing="0.05em"><tspan x="-62" y="0">Analysis</tspan><tspan font-size="18" font-family="Europa-Light, Europa" font-weight="300"><tspan x="-77" y="26">the Scope of work</tspan></tspan></text>
    <g id="Group_193" data-name="Group 193" transform="translate(243.652 2320.075)">
      <g id="Ellipse_87" data-name="Ellipse 87" transform="translate(0.348 -0.075)" fill="none" stroke="#fcfcff" stroke-width="4">
        <ellipse cx="37.5" cy="38" rx="37.5" ry="38" stroke="none"/>
        <ellipse cx="37.5" cy="38" rx="35.5" ry="36" fill="none"/>
      </g>
      <line id="Line_84" data-name="Line 84" x2="21.605" y2="21.605" transform="translate(68.916 72.179)" fill="none" stroke="#fcfcff" stroke-linecap="round" stroke-width="12"/>
      <path id="Path_518" data-name="Path 518" d="M3934.357,4223.55l17.045-42.006,44.635-11.322" transform="translate(-3915.879 -4146.01)" fill="none" stroke="#fcfcff" stroke-width="3"/>
      <g id="Ellipse_88" data-name="Ellipse 88" transform="translate(8.348 75.925)" fill="none" stroke="#fcfcff" stroke-width="3">
        <ellipse cx="8" cy="7" rx="8" ry="7" stroke="none"/>
        <ellipse cx="8" cy="7" rx="6.5" ry="5.5" fill="none"/>
      </g>
      <g id="Ellipse_89" data-name="Ellipse 89" transform="translate(28.348 28.925)" fill="#fff" stroke="#fcfcff" stroke-width="1">
        <circle cx="7.5" cy="7.5" r="7.5" stroke="none"/>
        <circle cx="7.5" cy="7.5" r="7" fill="none"/>
      </g>
      <g id="Ellipse_90" data-name="Ellipse 90" transform="translate(79.348 14.925)" fill="none" stroke="#fcfcff" stroke-width="3" style="mix-blend-mode: color-dodge;isolation: isolate">
        <ellipse cx="8" cy="7.5" rx="8" ry="7.5" stroke="none"/>
        <ellipse cx="8" cy="7.5" rx="6.5" ry="6" fill="none"/>
      </g>
      <g id="Ellipse_91" data-name="Ellipse 91" transform="translate(61.726 9.929) rotate(85)" fill="none" stroke="#fcfcff" stroke-linecap="round" stroke-width="3" stroke-dasharray="193">
        <circle cx="26.021" cy="26.021" r="26.021" stroke="none"/>
        <circle cx="26.021" cy="26.021" r="24.521" fill="none"/>
      </g>
    </g>
    <path id="Path_538" data-name="Path 538" d="M3869.817,4228.978c20.411-24.994,64.618-65.8,134.688-65.078,67.539.7,109.5,38.117,130.115,63.158" transform="translate(-3716 -1921)" fill="none" stroke="#707070" stroke-width="1" stroke-dasharray="8"/>
    <path id="Path_540" data-name="Path 540" d="M3869.817,4228.978c20.411-24.994,64.618-65.8,134.688-65.078,67.539.7,109.5,38.117,130.115,63.158" transform="translate(-3177.908 -1921)" fill="none" stroke="#707070" stroke-width="1" stroke-dasharray="8"/>
    <path id="Path_543" data-name="Path 543" d="M3869.817,4228.978c20.411-24.994,64.618-65.8,134.688-65.078,67.539.7,109.5,38.117,130.115,63.158" transform="translate(-2643.726 -1921)" fill="none" stroke="#707070" stroke-width="1" stroke-dasharray="8"/>
    <path id="Path_539" data-name="Path 539" d="M3869.817,4163.891c20.411,24.994,64.618,65.8,134.688,65.078,67.539-.7,109.5-38.117,130.114-63.158" transform="translate(-3446.62 -1634)" fill="none" stroke="#707070" stroke-width="1" stroke-dasharray="8"/>
    <path id="Path_541" data-name="Path 541" d="M3869.817,4163.891c20.411,24.994,64.618,65.8,134.688,65.078,67.539-.7,109.5-38.117,130.114-63.158" transform="translate(-2908.528 -1634)" fill="none" stroke="#707070" stroke-width="1" stroke-dasharray="8"/>
    <path id="Path_544" data-name="Path 544" d="M4124.811,4219.138h10.417V4208.5" transform="translate(-3716.608 -1913)" fill="none" stroke="#707070" stroke-width="1"/>
    <path id="Path_547" data-name="Path 547" d="M4124.811,4219.138h10.417V4208.5" transform="translate(-3178.516 -1913)" fill="none" stroke="#707070" stroke-width="1"/>
    <path id="Path_549" data-name="Path 549" d="M4135.228,4208.5h-10.417v10.636" transform="translate(-3163.516 -1678.61)" fill="none" stroke="#707070" stroke-width="1"/>
    <path id="Path_548" data-name="Path 548" d="M4124.811,4219.138h10.417V4208.5" transform="translate(-2644.334 -1913)" fill="none" stroke="#707070" stroke-width="1"/>
    <path id="Path_545" data-name="Path 545" d="M4124.811,4208.5h10.417v10.637" transform="translate(-3447.229 -1676.929)" fill="none" stroke="#707070" stroke-width="1"/>
    <path id="Path_546" data-name="Path 546" d="M4124.811,4208.5h10.417v10.637" transform="translate(-2909.137 -1676.929)" fill="none" stroke="#707070" stroke-width="1"/>
  </g>
</svg>
