<svg xmlns="http://www.w3.org/2000/svg" width="118.809" height="104" viewBox="0 0 118.809 104">
  <g id="Group_200" data-name="Group 200" transform="translate(0 -0.062)">
    <g id="Group_199" data-name="Group 199" transform="translate(0 0)">
      <g id="Polygon_2" data-name="Polygon 2" transform="translate(103.593 0.062) rotate(90)" fill="none">
        <path d="M78,0l26,44.5L78,89H26L0,44.5,26,0Z" stroke="none"/>
        <path d="M 27.14780426025391 2 L 2.31634521484375 44.5 L 27.14780426025391 87 L 76.85218811035156 87 L 101.6836547851562 44.5 L 76.85218811035156 2 L 27.14780426025391 2 M 26 0 L 78 0 L 104 44.5 L 78 89 L 26 89 L 0 44.5 L 26 0 Z" stroke="none" fill="#fff"/>
      </g>
      <path id="Path_535" data-name="Path 535" d="M0,57.593V7.14" transform="translate(59.405 44.522)" fill="none" stroke="#fff" stroke-width="2"/>
      <path id="Path_534" data-name="Path 534" d="M5773.359,4274.028l44.109,25.667,44.049-25.6" transform="translate(-5758.126 -4248.033)" fill="none" stroke="#fff" stroke-width="2"/>
      <g id="Path_536" data-name="Path 536" transform="translate(10 25.807)" fill="#69c85e">
        <path d="M 33.85823440551758 36.84786987304688 L -8.245693206787109 11.89737796783447 L 6.360141754150391 0.2127038985490799 L 48.46408081054688 25.16318702697754 L 33.85823440551758 36.84786987304688 Z" stroke="none"/>
        <path d="M 6.445041656494141 1.425407409667969 L -6.491405487060547 11.77456283569336 L 33.77334213256836 35.63516235351562 L 46.70978927612305 25.2859992980957 L 6.445041656494141 1.425407409667969 M 6.275241851806641 -1.000003814697266 L 50.21837997436523 25.04037666320801 L 33.94313812255859 38.06057739257812 L -10 12.02018737792969 L 6.275241851806641 -1.000003814697266 Z" stroke="none" fill="#fff"/>
      </g>
      <g id="Path_537" data-name="Path 537" transform="translate(68.591 25.807)" fill="#69c85e">
        <path d="M 6.360142230987549 36.84786987304688 L -8.245694160461426 25.16318702697754 L 33.85824203491211 0.2127004265785217 L 48.46408462524414 11.89737415313721 L 6.360142230987549 36.84786987304688 Z" stroke="none"/>
        <path d="M 33.77333831787109 1.425407409667969 L -6.491409301757812 25.2859992980957 L 6.445037841796875 35.63516235351562 L 46.70978546142578 11.77456283569336 L 33.77333831787109 1.425407409667969 M 33.94313812255859 -1.000003814697266 L 50.21837997436523 12.02018737792969 L 6.275241851806641 38.06057739257812 L -10 25.04037666320801 L 33.94313812255859 -1.000003814697266 Z" stroke="none" fill="#fff"/>
      </g>
    </g>
    <g id="Union_3" data-name="Union 3" transform="translate(47.593 7.062)" fill="none">
      <path d="M6,33V16.5H0L6,8.25,12,0l6,8.25,6,8.25H18V33Z" stroke="none"/>
      <path d="M 16.00043106079102 31 L 16.00043106079102 14.5 L 20.07262802124023 14.5 L 11.99974632263184 3.400283336639404 L 3.927536487579346 14.5 L 8.000000953674316 14.5 L 8.000000953674316 31 L 16.00043106079102 31 M 18.00043106079102 33 L 6.000000953674316 33 L 6.000000953674316 16.5 L 9.5367431640625e-07 16.5 L 11.99957084655762 0 L 24 16.5 L 18.00043106079102 16.5 L 18.00043106079102 33 Z" stroke="none" fill="#fff"/>
    </g>
  </g>
</svg>
