<svg id="Group_197" data-name="Group 197" xmlns="http://www.w3.org/2000/svg" width="84.106" height="90.958" viewBox="0 0 84.106 90.958">
  <g id="Path_522" data-name="Path 522" transform="translate(0)" fill="none" stroke-linecap="round" stroke-linejoin="bevel">
    <path d="M0,0H48.6L68.308,19.4l.067,71.553H0Z" stroke="none"/>
    <path d="M 1.999992370605469 1.999992370605469 L 1.999992370605469 88.95741271972656 L 66.37284851074219 88.95741271972656 L 66.30872344970703 20.24248504638672 L 47.78053283691406 1.999992370605469 L 1.999992370605469 1.999992370605469 M -7.62939453125e-06 -7.62939453125e-06 L 48.59987640380859 -7.62939453125e-06 L 68.30794525146484 19.40416717529297 L 68.37471771240234 90.95741271972656 L -7.62939453125e-06 90.95741271972656 L -7.62939453125e-06 -7.62939453125e-06 Z" stroke="none" fill="#fff"/>
  </g>
  <line id="Line_92" data-name="Line 92" x2="28.051" transform="translate(7.889 34.309)" fill="none" stroke="#fff" stroke-linecap="round" stroke-width="2"/>
  <line id="Line_93" data-name="Line 93" x2="26.298" transform="translate(7.889 43.883)" fill="none" stroke="#fff" stroke-linecap="round" stroke-width="2"/>
  <line id="Line_94" data-name="Line 94" x2="19.285" transform="translate(7.889 53.457)" fill="none" stroke="#fff" stroke-linecap="round" stroke-width="2"/>
  <line id="Line_96" data-name="Line 96" x2="10.519" transform="translate(7.889 74.302)" fill="none" stroke="#fff" stroke-linecap="round" stroke-width="2"/>
  <line id="Line_95" data-name="Line 95" x2="29.804" transform="translate(7.889 61.436)" fill="none" stroke="#fff" stroke-linecap="round" stroke-width="2"/>
  <g id="Path_524" data-name="Path 524" transform="translate(48.672)" fill="none">
    <path d="M0,0,19.7,19.7H0Z" stroke="none"/>
    <path d="M 2.000003814697266 4.828424453735352 L 2.000003814697266 17.70292472839355 L 14.87450408935547 17.70292472839355 L 2.000003814697266 4.828424453735352 M 3.814697265625e-06 3.814697265625e-06 L 19.70292472839355 19.70292472839355 L 3.814697265625e-06 19.70292472839355 L 3.814697265625e-06 3.814697265625e-06 Z" stroke="none" fill="#fff"/>
  </g>
  <g id="Ellipse_100" data-name="Ellipse 100" transform="translate(41.106 29.645)" fill="#f15170" stroke="#fff" stroke-width="2">
    <ellipse cx="21.5" cy="21" rx="21.5" ry="21" stroke="none"/>
    <ellipse cx="21.5" cy="21" rx="20.5" ry="20" fill="none"/>
  </g>
  <path id="Path_525" data-name="Path 525" d="M4828.106,4363.2l6.7,6.7,14.552-14.552" transform="translate(-4773.57 -4311.992)" fill="none" stroke="#fff" stroke-linecap="round" stroke-width="2"/>
</svg>
